<!DOCTYPE svg PUBLIC "-//W3C//DTD SVG 1.1//EN" "http://www.w3.org/Graphics/SVG/1.1/DTD/svg11.dtd"> <svg width="521px" height="521px" version="1.1" baseProfile="full" xmlns="http://www.w3.org/2000/svg" xmlns:xlink="http://www.w3.org/1999/xlink" xmlns:ev="http://www.w3.org/2001/xml-events"><polygon fill="rgb(228,119,25)" stroke="rgb(228,119,25)" points="434.67513090372086,199.35507264733315 418.1607948243618,255.36492812633514 360.98636293411255,240.0009418129921"></polygon><polygon fill="rgb(228,119,25)" stroke="rgb(228,119,25)" points="253.95548564195633,240.20964735746384 195.7825343310833,255.86455339193344 179.23949685692787,199.65464025735855"></polygon><polygon fill="rgb(119,57,0)" stroke="rgb(119,57,0)" points="417.2325238287449,144.34902620315552 364.0214691013098,128.78514808416367 382.49979670345783,123.72183045744896"></polygon><polygon fill="rgb(119,57,0)" stroke="rgb(119,57,0)" points="423.8569100499153,126.95084555447102 417.2325238287449,144.34902620315552 382.49979670345783,123.72183045744896"></polygon><polygon fill="rgb(119,57,0)" stroke="rgb(119,57,0)" points="423.8569100499153,126.95084555447102 382.49979670345783,123.72183045744896 425.7939385473728,114.63106539845467"></polygon><polygon fill="rgb(119,57,0)" stroke="rgb(119,57,0)" points="382.49979670345783,123.72183045744896 428.50441336631775,104.36437225341797 425.7939385473728,114.63106539845467"></polygon><polygon fill="rgb(119,57,0)" stroke="rgb(119,57,0)" points="197.04471865296364,144.3748537749052 231.75756432116032,123.67989885807037 250.53076055645943,128.76459927856922"></polygon><polygon fill="rgb(119,57,0)" stroke="rgb(119,57,0)" points="190.37544590234756,126.90030871331692 231.75756432116032,123.67989885807037 197.04471865296364,144.3748537749052"></polygon><polygon fill="rgb(119,57,0)" stroke="rgb(119,57,0)" points="190.37544590234756,126.90030871331692 188.41125309467316,114.52358043193817 231.75756432116032,123.67989885807037"></polygon><polygon fill="rgb(119,57,0)" stroke="rgb(119,57,0)" points="231.75756432116032,123.67989885807037 188.41125309467316,114.52358043193817 185.67518764734268,104.20658737421036"></polygon><polygon fill="rgb(247,132,25)" stroke="rgb(247,132,25)" points="272.67532079666853,54.62993198633194 341.66647923737764,54.74025535583496 326.4639579281211,96.95288980007172"></polygon><polygon fill="rgb(247,132,25)" stroke="rgb(247,132,25)" points="326.4639579281211,96.95288980007172 288.4903485812247,96.92287096381187 272.67532079666853,54.62993198633194"></polygon><polygon fill="rgb(119,57,0)" stroke="rgb(119,57,0)" points="428.50441336631775,104.36437225341797 382.49979670345783,123.72183045744896 382.0114475488663,71.35547035932541"></polygon><polygon fill="rgb(119,57,0)" stroke="rgb(119,57,0)" points="382.0114475488663,71.35547035932541 382.49979670345783,123.72183045744896 364.0214691013098,128.78514808416367"></polygon><polygon fill="rgb(119,57,0)" stroke="rgb(119,57,0)" points="232.6946323812008,71.16406059265137 231.75756432116032,123.67989885807037 185.67518764734268,104.20658737421036"></polygon><polygon fill="rgb(119,57,0)" stroke="rgb(119,57,0)" points="250.53076055645943,128.76459927856922 231.75756432116032,123.67989885807037 232.6946323812008,71.16406059265137"></polygon><polygon fill="rgb(225,119,25)" stroke="rgb(225,119,25)" points="424.7687763273716,24.361799597740173 326.4639579281211,96.95288980007172 341.66647923737764,54.74025535583496"></polygon><polygon fill="rgb(228,119,25)" stroke="rgb(228,119,25)" points="360.98636293411255,240.0009418129921 388.0113382637501,199.7321063876152 434.67513090372086,199.35507264733315"></polygon><polygon fill="rgb(247,132,25)" stroke="rgb(247,132,25)" points="380.35927833616734,153.45592905208468 417.2325238287449,144.34902620315552 434.67513090372086,199.35507264733315"></polygon><polygon fill="rgb(247,132,25)" stroke="rgb(247,132,25)" points="380.35927833616734,153.45592905208468 434.67513090372086,199.35507264733315 388.0113382637501,199.7321063876152"></polygon><polygon fill="rgb(228,119,25)" stroke="rgb(228,119,25)" points="288.4903485812247,96.92287096381187 190.01036086678505,23.84898215532303 272.67532079666853,54.62993198633194"></polygon><polygon fill="rgb(228,119,25)" stroke="rgb(228,119,25)" points="179.23949685692787,199.65464025735855 227.11088901758194,199.921796053648 253.95548564195633,240.20964735746384"></polygon><polygon fill="rgb(247,132,25)" stroke="rgb(247,132,25)" points="234.78594574332237,153.4984032176435 179.23949685692787,199.65464025735855 197.04471865296364,144.3748537749052"></polygon><polygon fill="rgb(247,132,25)" stroke="rgb(247,132,25)" points="227.11088901758194,199.921796053648 179.23949685692787,199.65464025735855 234.78594574332237,153.4984032176435"></polygon><polygon fill="rgb(119,57,0)" stroke="rgb(119,57,0)" points="417.2325238287449,144.34902620315552 423.8569100499153,126.95084555447102 428.89941665530205,130.68714581429958"></polygon><polygon fill="rgb(119,57,0)" stroke="rgb(119,57,0)" points="364.0214691013098,128.78514808416367 326.4639579281211,96.95288980007172 382.0114475488663,71.35547035932541"></polygon><polygon fill="rgb(119,57,0)" stroke="rgb(119,57,0)" points="232.6946323812008,71.16406059265137 288.4903485812247,96.92287096381187 250.53076055645943,128.76459927856922"></polygon><polygon fill="rgb(119,57,0)" stroke="rgb(119,57,0)" points="423.8569100499153,126.95084555447102 425.7939385473728,114.63106539845467 431.96356731653214,119.54905584454536"></polygon><polygon fill="rgb(119,57,0)" stroke="rgb(119,57,0)" points="433.96953588724136,108.46392649412155 425.7939385473728,114.63106539845467 428.50441336631775,104.36437225341797"></polygon><polygon fill="rgb(119,57,0)" stroke="rgb(119,57,0)" points="197.04471865296364,144.3748537749052 185.32792547345161,130.65188138186932 190.37544590234756,126.90030871331692"></polygon><polygon fill="rgb(119,57,0)" stroke="rgb(119,57,0)" points="190.37544590234756,126.90030871331692 182.23494532704353,119.45953242480755 188.41125309467316,114.52358043193817"></polygon><polygon fill="rgb(119,57,0)" stroke="rgb(119,57,0)" points="180.20268163084984,108.31897839903831 185.67518764734268,104.20658737421036 188.41125309467316,114.52358043193817"></polygon><polygon fill="rgb(247,132,25)" stroke="rgb(247,132,25)" points="417.2325238287449,144.34902620315552 380.35927833616734,153.45592905208468 364.0214691013098,128.78514808416367"></polygon><polygon fill="rgb(119,57,0)" stroke="rgb(119,57,0)" points="382.0114475488663,71.35547035932541 437.2907730937004,62.91820138692856 428.50441336631775,104.36437225341797"></polygon><polygon fill="rgb(247,132,25)" stroke="rgb(247,132,25)" points="197.04471865296364,144.3748537749052 250.53076055645943,128.76459927856922 234.78594574332237,153.4984032176435"></polygon><polygon fill="rgb(119,57,0)" stroke="rgb(119,57,0)" points="185.67518764734268,104.20658737421036 177.05158504843712,62.54211062192917 232.6946323812008,71.16406059265137"></polygon><polygon fill="rgb(228,119,25)" stroke="rgb(228,119,25)" points="364.0214691013098,128.78514808416367 380.35927833616734,153.45592905208468 323.34735768660903,156.0801386386156"></polygon><polygon fill="rgb(228,119,25)" stroke="rgb(228,119,25)" points="323.34735768660903,156.0801386386156 326.4639579281211,96.95288980007172 364.0214691013098,128.78514808416367"></polygon><polygon fill="rgb(228,119,25)" stroke="rgb(228,119,25)" points="250.53076055645943,128.76459927856922 288.4903485812247,96.92287096381187 292.2551776468754,156.0907628070563"></polygon><polygon fill="rgb(228,119,25)" stroke="rgb(228,119,25)" points="292.2551776468754,156.0907628070563 234.78594574332237,153.4984032176435 250.53076055645943,128.76459927856922"></polygon><polygon fill="rgb(119,57,0)" stroke="rgb(119,57,0)" points="424.7687763273716,24.361799597740173 437.2907730937004,62.91820138692856 382.0114475488663,71.35547035932541"></polygon><polygon fill="rgb(119,57,0)" stroke="rgb(119,57,0)" points="382.0114475488663,71.35547035932541 326.4639579281211,96.95288980007172 424.7687763273716,24.361799597740173"></polygon><polygon fill="rgb(119,57,0)" stroke="rgb(119,57,0)" points="190.01036086678505,23.84898215532303 288.4903485812247,96.92287096381187 232.6946323812008,71.16406059265137"></polygon><polygon fill="rgb(119,57,0)" stroke="rgb(119,57,0)" points="232.6946323812008,71.16406059265137 177.05158504843712,62.54211062192917 190.01036086678505,23.84898215532303"></polygon><polygon fill="rgb(205,98,0)" stroke="rgb(205,98,0)" points="360.98636293411255,240.0009418129921 356.5093936622143,200.29536589980125 388.0113382637501,199.7321063876152"></polygon><polygon fill="rgb(205,98,0)" stroke="rgb(205,98,0)" points="253.95548564195633,240.20964735746384 227.11088901758194,199.921796053648 259.0065331310034,200.4112997353077"></polygon><polygon fill="rgb(247,132,25)" stroke="rgb(247,132,25)" points="288.4903485812247,96.92287096381187 326.4639579281211,96.95288980007172 323.34735768660903,156.0801386386156"></polygon><polygon fill="rgb(247,132,25)" stroke="rgb(247,132,25)" points="323.34735768660903,156.0801386386156 292.2551776468754,156.0907628070563 288.4903485812247,96.92287096381187"></polygon><polygon fill="rgb(192,172,157)" stroke="rgb(192,172,157)" points="329.7264336720109,255.9914048910141 360.98636293411255,240.0009418129921 349.99455673992634,249.2870306968689"></polygon><polygon fill="rgb(192,172,157)" stroke="rgb(192,172,157)" points="265.35484340786934,249.46708685159683 253.95548564195633,240.20964735746384 286.9309065118432,256.0879011154175"></polygon><polygon fill="rgb(214,194,178)" stroke="rgb(214,194,178)" points="330.1663372144103,246.6966633796692 360.98636293411255,240.0009418129921 329.7264336720109,255.9914048910141"></polygon><polygon fill="rgb(247,132,25)" stroke="rgb(247,132,25)" points="388.0113382637501,199.7321063876152 356.5093936622143,200.29536589980125 380.35927833616734,153.45592905208468"></polygon><polygon fill="rgb(214,194,178)" stroke="rgb(214,194,178)" points="286.82574888318777,246.78667724132538 286.9309065118432,256.0879011154175 253.95548564195633,240.20964735746384"></polygon><polygon fill="rgb(214,194,178)" stroke="rgb(214,194,178)" points="360.98636293411255,240.0009418129921 330.1663372144103,246.6966633796692 327.5245440006256,224.2458292543888"></polygon><polygon fill="rgb(228,119,25)" stroke="rgb(228,119,25)" points="327.5245440006256,224.2458292543888 356.5093936622143,200.29536589980125 360.98636293411255,240.0009418129921"></polygon><polygon fill="rgb(228,116,36)" stroke="rgb(228,116,36)" points="380.35927833616734,153.45592905208468 356.5093936622143,200.29536589980125 357.33952455222607,177.00025970488787"></polygon><polygon fill="rgb(247,132,25)" stroke="rgb(247,132,25)" points="234.78594574332237,153.4984032176435 259.0065331310034,200.4112997353077 227.11088901758194,199.921796053648"></polygon><polygon fill="rgb(205,98,0)" stroke="rgb(205,98,0)" points="323.34735768660903,156.0801386386156 380.35927833616734,153.45592905208468 357.33952455222607,177.00025970488787"></polygon><polygon fill="rgb(214,194,178)" stroke="rgb(214,194,178)" points="253.95548564195633,240.20964735746384 289.5334205813706,224.30839732289314 286.82574888318777,246.78667724132538"></polygon><polygon fill="rgb(228,119,25)" stroke="rgb(228,119,25)" points="289.5334205813706,224.30839732289314 253.95548564195633,240.20964735746384 259.0065331310034,200.4112997353077"></polygon><polygon fill="rgb(228,116,36)" stroke="rgb(228,116,36)" points="234.78594574332237,153.4984032176435 258.09346829354763,177.07397288829088 259.0065331310034,200.4112997353077"></polygon><polygon fill="rgb(205,98,0)" stroke="rgb(205,98,0)" points="258.09346829354763,177.07397288829088 234.78594574332237,153.4984032176435 292.2551776468754,156.0907628070563"></polygon><polygon fill="rgb(205,98,0)" stroke="rgb(205,98,0)" points="357.33952455222607,177.00025970488787 337.05797715485096,167.788790255785 323.34735768660903,156.0801386386156"></polygon><polygon fill="rgb(205,98,0)" stroke="rgb(205,98,0)" points="292.2551776468754,156.0907628070563 278.47187031805515,167.82195135578513 258.09346829354763,177.07397288829088"></polygon><polygon fill="rgb(36,51,67)" stroke="rgb(36,51,67)" points="328.65542424470186,185.60613052546978 337.05797715485096,167.788790255785 357.33952455222607,177.00025970488787"></polygon><polygon fill="rgb(247,132,25)" stroke="rgb(247,132,25)" points="356.5093936622143,200.29536589980125 328.65542424470186,185.60613052546978 357.33952455222607,177.00025970488787"></polygon><polygon fill="rgb(36,51,67)" stroke="rgb(36,51,67)" points="287.048319645226,185.64387322962284 258.09346829354763,177.07397288829088 278.47187031805515,167.82195135578513"></polygon><polygon fill="rgb(247,132,25)" stroke="rgb(247,132,25)" points="259.0065331310034,200.4112997353077 258.09346829354763,177.07397288829088 287.048319645226,185.64387322962284"></polygon><polygon fill="rgb(205,98,0)" stroke="rgb(205,98,0)" points="337.05797715485096,167.788790255785 328.65542424470186,185.60613052546978 323.34735768660903,156.0801386386156"></polygon><polygon fill="rgb(205,98,0)" stroke="rgb(205,98,0)" points="278.47187031805515,167.82195135578513 292.2551776468754,156.0907628070563 287.048319645226,185.64387322962284"></polygon><polygon fill="rgb(192,172,157)" stroke="rgb(192,172,157)" points="349.99455673992634,249.2870306968689 327.8447905406356,265.71710032224655 329.7264336720109,255.9914048910141"></polygon><polygon fill="rgb(192,172,157)" stroke="rgb(192,172,157)" points="286.9309065118432,256.0879011154175 288.88472742959857,265.8122034072876 265.35484340786934,249.46708685159683"></polygon><polygon fill="rgb(225,119,25)" stroke="rgb(225,119,25)" points="328.65542424470186,185.60613052546978 322.1642348654568,174.74694800376892 323.34735768660903,156.0801386386156"></polygon><polygon fill="rgb(247,132,25)" stroke="rgb(247,132,25)" points="293.6920543760061,174.76685236394405 292.2551776468754,156.0907628070563 323.34735768660903,156.0801386386156"></polygon><polygon fill="rgb(247,132,25)" stroke="rgb(247,132,25)" points="323.34735768660903,156.0801386386156 322.1642348654568,174.74694800376892 293.6920543760061,174.76685236394405"></polygon><polygon fill="rgb(228,116,36)" stroke="rgb(228,116,36)" points="287.048319645226,185.64387322962284 292.2551776468754,156.0907628070563 293.6920543760061,174.76685236394405"></polygon><polygon fill="rgb(247,132,25)" stroke="rgb(247,132,25)" points="328.65542424470186,185.60613052546978 356.5093936622143,200.29536589980125 327.5245440006256,224.2458292543888"></polygon><polygon fill="rgb(247,132,25)" stroke="rgb(247,132,25)" points="289.5334205813706,224.30839732289314 259.0065331310034,200.4112997353077 287.048319645226,185.64387322962284"></polygon><polygon fill="rgb(228,116,36)" stroke="rgb(228,116,36)" points="322.1642348654568,174.74694800376892 328.65542424470186,185.60613052546978 322.6383168101311,220.88637319207191"></polygon><polygon fill="rgb(247,132,25)" stroke="rgb(247,132,25)" points="327.5245440006256,224.2458292543888 322.6383168101311,220.88637319207191 328.65542424470186,185.60613052546978"></polygon><polygon fill="rgb(228,116,36)" stroke="rgb(228,116,36)" points="293.6920543760061,174.76685236394405 294.42731603980064,220.93101999163628 287.048319645226,185.64387322962284"></polygon><polygon fill="rgb(247,132,25)" stroke="rgb(247,132,25)" points="287.048319645226,185.64387322962284 294.42731603980064,220.93101999163628 289.5334205813706,224.30839732289314"></polygon><polygon fill="rgb(247,132,25)" stroke="rgb(247,132,25)" points="293.6920543760061,174.76685236394405 322.1642348654568,174.74694800376892 322.6383168101311,220.88637319207191"></polygon><polygon fill="rgb(247,132,25)" stroke="rgb(247,132,25)" points="322.6383168101311,220.88637319207191 294.42731603980064,220.93101999163628 293.6920543760061,174.76685236394405"></polygon><polygon fill="rgb(192,172,157)" stroke="rgb(192,172,157)" points="330.1663372144103,246.6966633796692 329.7264336720109,255.9914048910141 327.8447905406356,265.71710032224655"></polygon><polygon fill="rgb(192,172,157)" stroke="rgb(192,172,157)" points="288.88472742959857,265.8122034072876 286.9309065118432,256.0879011154175 286.82574888318777,246.78667724132538"></polygon><polygon fill="rgb(192,172,157)" stroke="rgb(192,172,157)" points="327.74391021579504,244.483429312706 327.8447905406356,265.71710032224655 288.88472742959857,265.8122034072876"></polygon><polygon fill="rgb(192,172,157)" stroke="rgb(192,172,157)" points="327.8447905406356,265.71710032224655 327.74391021579504,244.483429312706 330.1663372144103,246.6966633796692"></polygon><polygon fill="rgb(192,172,157)" stroke="rgb(192,172,157)" points="286.82574888318777,246.78667724132538 289.4090185165405,244.56142616271973 288.88472742959857,265.8122034072876"></polygon><polygon fill="rgb(192,172,157)" stroke="rgb(192,172,157)" points="288.88472742959857,265.8122034072876 289.4090185165405,244.56142616271973 327.74391021579504,244.483429312706"></polygon><polygon fill="rgb(0,0,0)" stroke="rgb(0,0,0)" points="327.5245440006256,224.2458292543888 330.1663372144103,246.6966633796692 327.74391021579504,244.483429312706"></polygon><polygon fill="rgb(0,0,0)" stroke="rgb(0,0,0)" points="289.4090185165405,244.56142616271973 286.82574888318777,246.78667724132538 289.5334205813706,224.30839732289314"></polygon><polygon fill="rgb(0,0,0)" stroke="rgb(0,0,0)" points="327.74391021579504,244.483429312706 326.16780496016145,229.14316427707672 327.5245440006256,224.2458292543888"></polygon><polygon fill="rgb(0,0,0)" stroke="rgb(0,0,0)" points="327.5245440006256,224.2458292543888 326.16780496016145,229.14316427707672 323.0492856502533,225.66336750984192"></polygon><polygon fill="rgb(0,0,0)" stroke="rgb(0,0,0)" points="323.0492856502533,225.66336750984192 322.6383168101311,220.88637319207191 327.5245440006256,224.2458292543888"></polygon><polygon fill="rgb(0,0,0)" stroke="rgb(0,0,0)" points="294.32906156778336,225.71144503355026 294.42731603980064,220.93101999163628 322.6383168101311,220.88637319207191"></polygon><polygon fill="rgb(0,0,0)" stroke="rgb(0,0,0)" points="322.6383168101311,220.88637319207191 323.0492856502533,225.66336750984192 294.32906156778336,225.71144503355026"></polygon><polygon fill="rgb(0,0,0)" stroke="rgb(0,0,0)" points="289.5334205813706,224.30839732289314 291.205058388412,229.20402172207832 289.4090185165405,244.56142616271973"></polygon><polygon fill="rgb(0,0,0)" stroke="rgb(0,0,0)" points="289.5334205813706,224.30839732289314 294.42731603980064,220.93101999163628 294.32906156778336,225.71144503355026"></polygon><polygon fill="rgb(0,0,0)" stroke="rgb(0,0,0)" points="294.32906156778336,225.71144503355026 291.205058388412,229.20402172207832 289.5334205813706,224.30839732289314"></polygon><polygon fill="rgb(0,0,0)" stroke="rgb(0,0,0)" points="291.205058388412,229.20402172207832 326.16780496016145,229.14316427707672 327.74391021579504,244.483429312706"></polygon><polygon fill="rgb(0,0,0)" stroke="rgb(0,0,0)" points="327.74391021579504,244.483429312706 289.4090185165405,244.56142616271973 291.205058388412,229.20402172207832"></polygon><polygon fill="rgb(0,0,0)" stroke="rgb(0,0,0)" points="323.0492856502533,225.66336750984192 326.16780496016145,229.14316427707672 291.205058388412,229.20402172207832"></polygon><polygon fill="rgb(0,0,0)" stroke="rgb(0,0,0)" points="291.205058388412,229.20402172207832 294.32906156778336,225.71144503355026 323.0492856502533,225.66336750984192"></polygon></svg>